<svg width="41" height="41" viewBox="0 0 41 41" fill="none" xmlns="http://www.w3.org/2000/svg">
<g filter="url(#filter0_d)">
<path d="M20.5 33C29.6127 33 37 25.6127 37 16.5C37 7.3873 29.6127 0 20.5 0C11.3873 0 4 7.3873 4 16.5C4 25.6127 11.3873 33 20.5 33Z" fill="#FEB001"/>
<path d="M28.75 19.9114C26.9701 19.9114 25.2726 19.5236 23.7072 18.7584C23.4618 18.6409 23.1771 18.6223 22.9172 18.711C22.6574 18.8017 22.4449 18.9915 22.3253 19.2369L21.5828 20.7735C19.3553 19.4947 17.5073 17.6447 16.2265 15.4172L17.7651 14.6747C18.0126 14.5551 18.2003 14.3426 18.2911 14.0828C18.3797 13.8229 18.3633 13.5383 18.2436 13.2928C17.4764 11.7294 17.0886 10.032 17.0886 8.25C17.0886 7.68075 16.6266 7.21875 16.0574 7.21875H12.25C11.6808 7.21875 11.2188 7.68075 11.2188 8.25C11.2188 17.9169 19.0831 25.7812 28.75 25.7812C29.3192 25.7812 29.7812 25.3192 29.7812 24.75V20.9426C29.7812 20.3734 29.3192 19.9114 28.75 19.9114Z" fill="#FAFAFA"/>
</g>
<defs>
<filter id="filter0_d" x="0" y="0" width="41" height="41" filterUnits="userSpaceOnUse" color-interpolation-filters="sRGB">
<feFlood flood-opacity="0" result="BackgroundImageFix"/>
<feColorMatrix in="SourceAlpha" type="matrix" values="0 0 0 0 0 0 0 0 0 0 0 0 0 0 0 0 0 0 127 0"/>
<feOffset dy="4"/>
<feGaussianBlur stdDeviation="2"/>
<feColorMatrix type="matrix" values="0 0 0 0 0 0 0 0 0 0 0 0 0 0 0 0 0 0 0.25 0"/>
<feBlend mode="normal" in2="BackgroundImageFix" result="effect1_dropShadow"/>
<feBlend mode="normal" in="SourceGraphic" in2="effect1_dropShadow" result="shape"/>
</filter>
</defs>
</svg>
