<svg width="50" height="74" viewBox="0 0 50 74" fill="none" xmlns="http://www.w3.org/2000/svg">
<g clip-path="url(#clip0)">
<path d="M32.0568 44.8955L24.3179 69.4022L43.0203 44.8955H32.0568Z" fill="#1FB3CA"/>
<path d="M7.52419 36.2269L1.58301 43.3564H11.683L7.52419 36.2269Z" fill="#1FB3CA"/>
<path d="M36.9914 36.2269L32.8325 43.3564H42.9325L36.9914 36.2269Z" fill="#1FB3CA"/>
<path d="M12.4586 44.8955H1.49512L20.1975 69.4022L12.4586 44.8955Z" fill="#1FB3CA"/>
<path d="M24.1152 35.6605L31.3309 42.8762L35.5397 35.6605H24.1152Z" fill="#1FB3CA"/>
<path d="M8.97559 35.6605L13.1844 42.8762L20.4 35.6605H8.97559Z" fill="#1FB3CA"/>
<path d="M14.0723 44.8955L22.2576 70.8144L30.4429 44.8955H14.0723Z" fill="#92D6FF"/>
<path d="M22.2576 35.9792L14.8804 43.3565H29.6348L22.2576 35.9792Z" fill="#92D6FF"/>
</g>
<g clip-path="url(#clip1)">
<path d="M39.576 18.8769L38.3697 28.8379C37.866 32.997 30.3268 34.3762 23.4723 33.5462C16.6178 32.7161 9.62579 29.5771 10.1295 25.4179L11.3358 15.457C11.4197 14.7637 12.0558 14.2417 12.7749 14.3288L38.4478 17.4378C39.1668 17.5249 39.6599 18.1836 39.576 18.8769Z" fill="#444444"/>
<path d="M39.576 18.8769L38.3697 28.8379C37.866 32.997 30.3268 34.3762 23.4723 33.5461L25.6113 15.8833L38.4478 17.4378C39.1668 17.5249 39.6599 18.1836 39.576 18.8769Z" fill="#292929"/>
<path d="M47.7119 16.9444C47.6466 17.4836 47.254 17.9309 46.7442 18.0513L25.1875 23.2556C25.0275 23.2885 24.8703 23.2956 24.7162 23.2769C24.5621 23.2582 24.4111 23.2138 24.2636 23.1437L4.57238 12.9443L4.86462 10.5311L26.4212 5.3268C26.5812 5.29427 26.7384 5.28719 26.8925 5.30586C27.0466 5.32452 27.1976 5.36892 27.3452 5.43869L47.0364 15.6382C47.5027 15.8771 47.7772 16.4052 47.7119 16.9444Z" fill="#6E6E6E"/>
<path d="M47.712 16.9445C47.6467 17.4837 47.254 17.931 46.7442 18.0514L25.1876 23.2557C25.0276 23.2885 24.8704 23.2956 24.7163 23.277L26.8926 5.30591C27.0467 5.32457 27.1977 5.36897 27.3452 5.43874L47.0364 15.6382C47.5027 15.8772 47.7773 16.4053 47.712 16.9445Z" fill="#5A5A5A"/>
<path d="M27.088 14.4469C27.001 15.1656 26.3679 15.6621 25.6489 15.5751L6.30863 13.2329L4.00176 32.282L5.58397 40.0802C5.7345 40.7755 5.28461 41.4767 4.59253 41.6011C3.87121 41.7485 3.19606 41.3018 3.07166 40.6094L3.02237 40.3693C2.84514 40.973 2.24687 41.3954 1.60505 41.3177C0.886009 41.2306 0.38982 40.5973 0.476857 39.8786L3.89679 11.6384C3.98387 10.9193 4.61685 10.4231 5.33589 10.5102L25.9598 13.0078C26.6788 13.0949 27.1751 13.7278 27.088 14.4469Z" fill="#FDBF00"/>
</g>
<defs>
<clipPath id="clip0">
<rect width="41.5252" height="41.5252" fill="white" transform="translate(1.49512 32.4749)"/>
</clipPath>
<clipPath id="clip1">
<rect width="44.1352" height="44.1352" fill="white" transform="translate(5.30615) rotate(6.90499)"/>
</clipPath>
</defs>
</svg>
