<svg width="48" height="47" viewBox="0 0 48 47" fill="none" xmlns="http://www.w3.org/2000/svg">
<path d="M24.0191 9.81829C23.126 10.8847 22.2304 11.9459 21.3425 13.0148C19.1187 15.6884 16.8976 18.362 14.6789 21.0406C13.0913 22.9591 11.5062 24.8852 9.93125 26.8138C9.66918 27.1353 9.29263 27.3751 9.16796 27.796C9.27482 27.9695 9.42493 27.8955 9.54452 27.8955C11.781 27.898 14.0174 27.8904 16.2539 27.8955C16.8441 27.898 16.8619 27.9312 16.8594 28.5307C16.8543 33.7171 16.8467 38.9061 16.8492 44.0925C16.8492 44.8655 16.778 45.6385 16.8441 46.414C16.8925 46.9778 16.7576 47.0748 16.2131 46.8707C14.4041 46.1921 12.6562 45.3885 11.0304 44.3272C7.01039 41.7047 4.01319 38.2096 2.05408 33.8166C1.03126 31.5206 0.372288 29.1175 0.128034 26.6225C-0.182371 23.477 0.061879 20.3722 0.967652 17.3186C1.9981 13.8465 3.69006 10.7545 6.07916 8.05802C9.1934 4.54003 13.0226 2.13689 17.5413 0.874084C20.4469 0.06283 23.4059 -0.176977 26.4158 0.126606C28.6192 0.348553 30.7411 0.856226 32.802 1.65472C32.8707 1.68024 32.9292 1.73381 32.9928 1.77207C32.9191 1.87922 32.7944 1.93024 32.6901 1.89708C32.1023 1.7185 31.7716 2.07821 31.4103 2.44557C29.4079 4.47115 27.3954 6.48398 25.3828 8.50191C25.0572 8.82846 24.7366 9.1601 24.4592 9.53257C24.36 9.67288 24.2735 9.88972 24.0191 9.81829Z" fill="#DE1946"/>
<path d="M24.0192 9.81863C26.3777 7.15017 29.006 4.74957 31.4714 2.18825C31.8098 1.83875 32.1177 1.53006 32.652 1.77497C32.7461 1.81834 32.8784 1.77497 32.9955 1.77242C34.0336 2.09386 34.9826 2.60918 35.9163 3.14747C38.7456 4.77508 41.1474 6.89761 43.1193 9.5074C44.4169 11.2268 45.4855 13.0764 46.2768 15.0892C46.7933 16.4056 47.2309 17.7475 47.5107 19.1276C47.9255 21.1813 48.0705 23.263 47.9687 25.36C47.9102 26.5616 47.7601 27.7555 47.5184 28.9265C47.152 30.7071 46.605 32.4394 45.8366 34.0976C44.4118 37.1793 42.4425 39.8529 39.916 42.1055C37.4938 44.2638 34.7383 45.8608 31.6673 46.9042C31.2221 47.0547 31.1509 46.9986 31.1585 46.547C31.2399 42.4627 31.1814 38.3809 31.1865 34.2966C31.189 32.5363 31.1941 30.7735 31.1967 29.0132C31.1967 28.7811 31.1687 28.5489 31.1738 28.3168C31.1814 27.957 31.2603 27.8856 31.6165 27.8856C33.6417 27.8856 35.667 27.8831 37.6897 27.8831C38.0714 27.8831 38.453 27.8831 38.8194 27.8831C38.9313 27.6917 38.8016 27.5973 38.7202 27.5055C36.555 24.985 34.4686 22.4007 32.3518 19.842C29.8253 16.7934 27.2962 13.7473 24.7672 10.7013C24.5204 10.4054 24.2685 10.112 24.0192 9.81863Z" fill="#BE143E"/>
</svg>
